# xmcd CD database file
#
# Track frame offsets:
#	150
#	16146
#	29903
#
# Disc length: 609 seconds
#
# Revision: 0
# Processed by: cddbd v1.5.1PL0 Copyright (c) Steve Scherf et al.
# Submitted via: CDex 1.51
#
DISCID=1e025f03
DTITLE=ＴＨＥ ＳＴＡＮＤ ＵＰ - 今日からマ王！
DYEAR=2005
DGENRE=Anime
TTITLE0=果てしなく遠い空に
TTITLE1=ステキな幸せ
TTITLE2=青い風(LIVEヴァージョン)
EXTD=YEAR: 2005
EXTT0=
EXTT1=
EXTT2=
PLAYORDER=
